<svg width="12" height="12" viewBox="0 0 12 12" fill="none" xmlns="http://www.w3.org/2000/svg">
<path fill-rule="evenodd" clip-rule="evenodd" d="M0.113378 0.113592C0.264549 -0.0375791 0.509645 -0.0375791 0.660816 0.113592L6 5.45278L11.3392 0.113592C11.4904 -0.0375791 11.7355 -0.0375791 11.8866 0.113592C12.0378 0.264762 12.0378 0.509858 11.8866 0.661029L6.54744 6.00021L11.8866 11.3394C12.0378 11.4906 12.0378 11.7357 11.8866 11.8868C11.7355 12.038 11.4904 12.038 11.3392 11.8868L6 6.54765L0.660816 11.8868C0.509645 12.038 0.264549 12.038 0.113378 11.8868C-0.0377927 11.7357 -0.0377927 11.4906 0.113378 11.3394L5.45256 6.00021L0.113378 0.661029C-0.0377927 0.509858 -0.0377927 0.264762 0.113378 0.113592Z" fill="#333333"/>
</svg>
