<svg width="12" height="16" viewBox="0 0 12 16" fill="none" xmlns="http://www.w3.org/2000/svg">
<path d="M9.33334 8.80881V3C9.33334 2.91147 9.29819 2.82681 9.23569 2.76431L6.569 0.0976562C6.5065 0.0351562 6.42187 0 6.33331 0H1.33331C0.597969 0 0 0.597969 0 1.33334V11.3333C0 12.0687 0.597969 12.6667 1.33334 12.6667H4.68356C4.85275 14.5326 6.42403 16 8.33334 16C10.3552 16 12 14.3552 12 12.3333C12 10.6585 10.87 9.24556 9.33334 8.80881ZM6.66666 1.13803L8.19531 2.66669H7.33334C6.96584 2.66669 6.66669 2.36753 6.66669 2.00003V1.13803H6.66666ZM1.33334 12C0.965844 12 0.666687 11.7008 0.666687 11.3333V1.33334C0.666687 0.965844 0.965844 0.666687 1.33334 0.666687H6V2C6 2.73534 6.59797 3.33334 7.33334 3.33334H8.66669V8.68356C8.55675 8.67359 8.44588 8.66669 8.33334 8.66669C6.42403 8.66669 4.85275 10.1341 4.68356 12H1.33334V12ZM8.33334 15.3333C6.67903 15.3333 5.33334 13.9876 5.33334 12.3333C5.33334 10.6791 6.67906 9.33334 8.33334 9.33334C9.98763 9.33334 11.3333 10.6791 11.3333 12.3333C11.3333 13.9876 9.98763 15.3333 8.33334 15.3333Z" fill="black"/>
<path d="M9.43081 12.7643L8.6665 13.5286V10.3333C8.6665 10.149 8.51741 9.99994 8.33316 9.99994C8.14891 9.99994 7.99982 10.149 7.99982 10.3333V13.5286L7.23551 12.7643C7.10529 12.6341 6.89435 12.6341 6.76417 12.7643C6.63395 12.8945 6.63395 13.1054 6.76417 13.2356L8.09751 14.569C8.1626 14.6341 8.24791 14.6666 8.33319 14.6666C8.41847 14.6666 8.50375 14.6341 8.56888 14.569L9.90222 13.2356C10.0324 13.1054 10.0324 12.8945 9.90222 12.7643C9.77194 12.6341 9.561 12.6341 9.43081 12.7643Z" fill="black"/>
</svg>
