<svg width="20" height="20" viewBox="0 0 20 20" fill="none" xmlns="http://www.w3.org/2000/svg">
<path d="M2.65273 18.6191H9.448C10.5649 18.6191 11.478 17.6938 11.478 16.577V14.7723C11.478 14.4926 11.2513 14.266 10.9716 14.266C10.6919 14.266 10.4653 14.4926 10.4653 14.7723V16.577C10.4639 17.1401 10.0111 17.5983 9.448 17.6063H2.65273C2.09419 17.6063 1.65474 17.1354 1.65474 16.577L1.65474 3.48324C1.64809 2.92819 2.09261 2.4729 2.64767 2.46641H9.44784C10.0088 2.46846 10.4629 2.92248 10.4653 3.48324V5.25023C10.4653 5.53006 10.6919 5.75667 10.9716 5.75667C11.2513 5.75667 11.478 5.53006 11.478 5.25023V3.48324C11.475 2.36331 10.5679 1.45638 9.448 1.45369H2.65273C1.53803 1.4578 0.63759 2.36521 0.642025 3.48007L0.642025 16.577C0.642025 17.6938 1.53581 18.6191 2.65273 18.6191Z" fill="#333333"/>
<path d="M17.654 9.50459L5.67023 9.50459C5.39057 9.50459 5.16379 9.73136 5.16379 10.011C5.16379 10.2905 5.39057 10.5173 5.67023 10.5173L17.7665 10.5173L15.1686 13.5203C14.9853 13.7333 15.0081 14.0541 15.2191 14.2393C15.4295 14.4233 15.7493 14.4019 15.9331 14.1916V14.1913L19.2077 10.4196C19.3284 10.3203 19.3963 10.1708 19.3919 10.0148C19.3871 9.85853 19.3105 9.71315 19.184 9.6213L15.9091 6.3464C15.7113 6.14861 15.3906 6.14861 15.1931 6.3464C14.9978 6.53802 14.9948 6.85126 15.1863 7.04651C15.1885 7.04857 15.1907 7.05079 15.1931 7.05301L17.654 9.50459Z" fill="#333333"/>
</svg>
