<svg width="20" height="20" viewBox="0 0 20 20" fill="none" xmlns="http://www.w3.org/2000/svg">
<g clip-path="url(#clip0)">
<path d="M18.4592 12.5636C18.1841 12.5636 17.9611 12.7866 17.9611 13.0617V17.4843C17.9601 18.3093 17.2918 18.9779 16.4668 18.9786H2.49052C1.66553 18.9779 0.99718 18.3093 0.996207 17.4843V4.50425C0.99718 3.67946 1.66553 3.01091 2.49052 3.00994H6.91313C7.18826 3.00994 7.41124 2.78696 7.41124 2.51184C7.41124 2.23691 7.18826 2.01373 6.91313 2.01373H2.49052C1.11567 2.01529 0.00155657 3.12941 0 4.50425V17.4845C0.00155657 18.8594 1.11567 19.9735 2.49052 19.975H16.4668C17.8416 19.9735 18.9558 18.8594 18.9573 17.4845V13.0617C18.9573 12.7866 18.7343 12.5636 18.4592 12.5636Z" fill="#333333"/>
<path d="M18.7597 0.732614C17.8844 -0.142764 16.4651 -0.142764 15.5898 0.732614L6.70328 9.61909C6.64238 9.68 6.59841 9.75549 6.57545 9.83838L5.40685 14.0573C5.35879 14.2303 5.40763 14.4155 5.53449 14.5425C5.66154 14.6694 5.84678 14.7182 6.01975 14.6704L10.2387 13.5016C10.3215 13.4786 10.397 13.4346 10.4579 13.3737L19.3442 4.48707C20.2182 3.61111 20.2182 2.19307 19.3442 1.31711L18.7597 0.732614ZM7.7886 9.94286L15.0615 2.66977L17.4071 5.01533L10.134 12.2884L7.7886 9.94286ZM7.32007 10.883L9.19399 12.7571L6.60191 13.4753L7.32007 10.883ZM18.6399 3.78272L18.1116 4.31098L15.7659 1.96523L16.2943 1.43696C16.7805 0.950729 17.569 0.950729 18.0552 1.43696L18.6399 2.02146C19.1253 2.50828 19.1253 3.2961 18.6399 3.78272Z" fill="#333333"/>
</g>
<defs>
<clipPath id="clip0">
<rect width="20" height="20" fill="white"/>
</clipPath>
</defs>
</svg>
